<svg xmlns="http://www.w3.org/2000/svg" viewBox="0 0 1600 700" preserveAspectRatio="xMidYMid slice">

  <defs>
    <linearGradient id="bg" x1="0" y1="0" x2="1" y2="1">
      <stop offset="0%" stop-color="#F9FCFF"/>
      <stop offset="55%" stop-color="#EFF8FF"/>
      <stop offset="100%" stop-color="#FFFFFF"/>
    </linearGradient>
    <linearGradient id="lineA" x1="0" y1="0" x2="1" y2="0">
      <stop offset="0%" stop-color="#0F6FFF"/>
      <stop offset="45%" stop-color="#22D3C5"/>
      <stop offset="100%" stop-color="#FFC928"/>
    </linearGradient>
    <linearGradient id="lineB" x1="0" y1="0" x2="1" y2="0">
      <stop offset="0%" stop-color="#7C3AED"/>
      <stop offset="55%" stop-color="#FF4F9A"/>
      <stop offset="100%" stop-color="#00AEEF"/>
    </linearGradient>
    <style>
      .flowA{fill:none;stroke:url(#lineA);stroke-width:5;stroke-linecap:round;stroke-linejoin:round;stroke-dasharray:70 34;animation:flow 6s linear infinite}
      .flowB{fill:none;stroke:url(#lineB);stroke-width:3.5;stroke-linecap:round;stroke-linejoin:round;stroke-dasharray:42 30;animation:flowBack 8s linear infinite;opacity:.65}
      .hair{fill:none;stroke:#0F6FFF;stroke-width:1.8;stroke-linecap:round;stroke-dasharray:8 18;animation:flow 12s linear infinite;opacity:.22}
      .float1{animation:f1 7s ease-in-out infinite alternate}
      .float2{animation:f2 9s ease-in-out infinite alternate}
      .spin{transform-box:fill-box;transform-origin:center;animation:spin 18s linear infinite}
      .pulse{transform-box:fill-box;transform-origin:center;animation:pulse 3s ease-in-out infinite}
      @keyframes flow{to{stroke-dashoffset:-260}}
      @keyframes flowBack{to{stroke-dashoffset:220}}
      @keyframes f1{from{transform:translate(-8px,-4px)}to{transform:translate(12px,8px)}}
      @keyframes f2{from{transform:translate(10px,8px)}to{transform:translate(-12px,-6px)}}
      @keyframes spin{to{transform:rotate(360deg)}}
      @keyframes pulse{50%{transform:scale(1.16);opacity:1}}
      @media (prefers-reduced-motion: reduce){*{animation:none!important}}
    </style>
  </defs>

  <rect width="1600" height="700" fill="url(#bg)"/>
  <g opacity=".18" fill="none" stroke="#0F6FFF" stroke-width="1.5">
    <path d="M0 350 Q400 250 800 350 T1600 350"/>
    <path d="M0 390 Q400 290 800 390 T1600 390"/>
    <path d="M0 430 Q400 330 800 430 T1600 430"/>
  </g>
  <path class="flowA" d="M-120 145 C180 230 280 75 545 175 C790 267 860 120 1085 205 C1300 286 1430 172 1720 260"/>
  <path class="flowB" d="M-120 315 C160 390 305 240 550 330 C775 410 890 285 1115 365 C1345 445 1450 340 1720 435"/>
  <path class="flowA" opacity=".6" d="M-120 610 C155 530 335 675 585 570 C785 486 915 630 1145 525 C1375 420 1485 510 1720 395"/>
  <g class="float1" fill="none">
    <circle cx="260" cy="425" r="52" stroke="#FFC928" stroke-width="7"/>
    <circle cx="1265" cy="315" r="44" stroke="#22D3C5" stroke-width="7"/>
    <rect class="spin" x="820" y="105" width="64" height="64" rx="14" stroke="#FF4F9A" stroke-width="7"/>
  </g>
  <g class="float2" fill="none">
    <path class="spin" d="M1430 90 L1495 198 L1372 182 Z" stroke="#0F6FFF" stroke-width="7" stroke-linejoin="round"/>
    <rect class="spin" x="470" y="155" width="48" height="48" rx="9" stroke="#7C3AED" stroke-width="6"/>
    <circle cx="1025" cy="570" r="35" stroke="#00AEEF" stroke-width="7"/>
  </g>
  <g>
    <circle class="pulse" cx="550" cy="330" r="9" fill="#FFFFFF" stroke="#7C3AED" stroke-width="6"/>
    <circle class="pulse" cx="1085" cy="205" r="9" fill="#FFFFFF" stroke="#22D3C5" stroke-width="6"/>
    <circle class="pulse" cx="1145" cy="525" r="9" fill="#FFFFFF" stroke="#FFC928" stroke-width="6"/>
  </g>
</svg>