<svg xmlns="http://www.w3.org/2000/svg" viewBox="0 0 1600 700" preserveAspectRatio="xMidYMid slice">

  <defs>
    <linearGradient id="bg" x1="0" y1="0" x2="1" y2="1">
      <stop offset="0%" stop-color="#F9FCFF"/>
      <stop offset="55%" stop-color="#EFF8FF"/>
      <stop offset="100%" stop-color="#FFFFFF"/>
    </linearGradient>
    <linearGradient id="lineA" x1="0" y1="0" x2="1" y2="0">
      <stop offset="0%" stop-color="#0F6FFF"/>
      <stop offset="45%" stop-color="#22D3C5"/>
      <stop offset="100%" stop-color="#FFC928"/>
    </linearGradient>
    <linearGradient id="lineB" x1="0" y1="0" x2="1" y2="0">
      <stop offset="0%" stop-color="#7C3AED"/>
      <stop offset="55%" stop-color="#FF4F9A"/>
      <stop offset="100%" stop-color="#00AEEF"/>
    </linearGradient>
    <style>
      .flowA{fill:none;stroke:url(#lineA);stroke-width:5;stroke-linecap:round;stroke-linejoin:round;stroke-dasharray:70 34;animation:flow 6s linear infinite}
      .flowB{fill:none;stroke:url(#lineB);stroke-width:3.5;stroke-linecap:round;stroke-linejoin:round;stroke-dasharray:42 30;animation:flowBack 8s linear infinite;opacity:.65}
      .hair{fill:none;stroke:#0F6FFF;stroke-width:1.8;stroke-linecap:round;stroke-dasharray:8 18;animation:flow 12s linear infinite;opacity:.22}
      .float1{animation:f1 7s ease-in-out infinite alternate}
      .float2{animation:f2 9s ease-in-out infinite alternate}
      .spin{transform-box:fill-box;transform-origin:center;animation:spin 18s linear infinite}
      .pulse{transform-box:fill-box;transform-origin:center;animation:pulse 3s ease-in-out infinite}
      @keyframes flow{to{stroke-dashoffset:-260}}
      @keyframes flowBack{to{stroke-dashoffset:220}}
      @keyframes f1{from{transform:translate(-8px,-4px)}to{transform:translate(12px,8px)}}
      @keyframes f2{from{transform:translate(10px,8px)}to{transform:translate(-12px,-6px)}}
      @keyframes spin{to{transform:rotate(360deg)}}
      @keyframes pulse{50%{transform:scale(1.16);opacity:1}}
      @media (prefers-reduced-motion: reduce){*{animation:none!important}}
    </style>
  </defs>

  <rect width="1600" height="700" fill="url(#bg)"/>
  <g opacity=".35" fill="none" stroke-linecap="round">
    <path d="M80 120 H360" stroke="#0F6FFF" stroke-width="2" stroke-dasharray="2 18"/>
    <path d="M1220 130 H1530" stroke="#22D3C5" stroke-width="2" stroke-dasharray="2 18"/>
    <path d="M100 590 H430" stroke="#FFC928" stroke-width="2" stroke-dasharray="2 18"/>
  </g>
  <path class="flowA" d="M-100 250 C150 160 275 265 455 215 S785 110 980 190 S1300 280 1700 115"/>
  <path class="flowB" d="M-100 350 C130 245 300 365 485 315 S820 230 1015 310 S1325 405 1700 255"/>
  <path class="flowA" opacity=".65" d="M-100 455 C160 355 335 475 540 425 S850 330 1070 410 S1365 520 1700 390"/>
  <path class="flowB" opacity=".5" d="M-100 555 C130 480 355 595 580 520 S900 450 1125 525 S1400 635 1700 520"/>
  <g class="float1" fill="none" stroke-linejoin="round">
    <path class="spin" d="M245 260 L300 305 L240 350 L190 300 Z" stroke="#0F6FFF" stroke-width="7"/>
    <circle cx="755" cy="150" r="32" stroke="#FF4F9A" stroke-width="6"/>
    <path class="spin" d="M1345 205 L1415 245 L1347 287 Z" stroke="#FFC928" stroke-width="7"/>
  </g>
  <g class="float2" fill="none" stroke-linejoin="round">
    <rect class="spin" x="1020" y="470" width="78" height="78" rx="16" stroke="#22D3C5" stroke-width="7"/>
    <circle cx="1430" cy="545" r="30" stroke="#7C3AED" stroke-width="6"/>
    <path class="spin" d="M545 540 L595 635 L485 620 Z" stroke="#00AEEF" stroke-width="7"/>
  </g>
</svg>